<svg width="1400" height="880" viewBox="0 0 1400 880" fill="none" xmlns="http://www.w3.org/2000/svg">
  <rect width="1400" height="880" fill="#F5F1E8"/>
  <text x="80" y="74" fill="#24352F" font-family="Georgia, serif" font-size="34" font-weight="700">Maquette avant / après</text>
  <text x="80" y="108" fill="#556B63" font-family="Arial, sans-serif" font-size="18">Comparaison structurelle de la landing page</text>

  <rect x="70" y="150" width="580" height="650" rx="30" fill="#FCFAF6" stroke="#D8D2C6"/>
  <text x="105" y="205" fill="#24352F" font-family="Georgia, serif" font-size="28" font-weight="700">Avant</text>
  <rect x="105" y="235" width="250" height="16" rx="8" fill="#EAE4D8"/>
  <rect x="105" y="272" width="420" height="24" rx="12" fill="#24352F"/>
  <rect x="105" y="308" width="360" height="24" rx="12" fill="#24352F" opacity="0.9"/>
  <rect x="105" y="356" width="440" height="14" rx="7" fill="#556B63" opacity="0.25"/>
  <rect x="105" y="382" width="400" height="14" rx="7" fill="#556B63" opacity="0.25"/>
  <rect x="105" y="430" width="180" height="50" rx="25" fill="#476257"/>
  <rect x="300" y="430" width="150" height="50" rx="25" fill="#FCFAF6" stroke="#D8D2C6"/>
  <rect x="105" y="520" width="500" height="220" rx="26" fill="#EAE4D8" stroke="#D8D2C6"/>
  <rect x="135" y="554" width="440" height="70" rx="20" fill="#FCFAF6" stroke="#D8D2C6"/>
  <rect x="135" y="640" width="440" height="70" rx="20" fill="#FCFAF6" stroke="#D8D2C6"/>
  <text x="105" y="774" fill="#556B63" font-family="Arial, sans-serif" font-size="16">Hero très textuel, surfaces proches, rythme uniforme</text>

  <rect x="750" y="150" width="580" height="650" rx="30" fill="#FCFAF6" stroke="#D8D2C6"/>
  <text x="785" y="205" fill="#24352F" font-family="Georgia, serif" font-size="28" font-weight="700">Après</text>
  <circle cx="1210" cy="250" r="72" fill="#F1E0D5"/>
  <circle cx="1130" cy="360" r="96" fill="#E3ECE8"/>
  <rect x="785" y="235" width="250" height="18" rx="9" fill="#F1E0D5"/>
  <rect x="785" y="274" width="360" height="28" rx="14" fill="#24352F"/>
  <rect x="785" y="312" width="310" height="28" rx="14" fill="#24352F" opacity="0.9"/>
  <rect x="785" y="360" width="250" height="16" rx="8" fill="#556B63" opacity="0.25"/>
  <rect x="785" y="386" width="290" height="16" rx="8" fill="#556B63" opacity="0.25"/>
  <rect x="785" y="430" width="210" height="58" rx="29" fill="#476257"/>
  <rect x="1008" y="430" width="156" height="58" rx="29" fill="#FCFAF6" stroke="#D8D2C6"/>
  <rect x="1035" y="248" width="250" height="230" rx="28" fill="#24352F"/>
  <rect x="1060" y="286" width="85" height="58" rx="18" fill="#30453D"/>
  <rect x="1158" y="286" width="85" height="58" rx="18" fill="#30453D"/>
  <rect x="1060" y="360" width="183" height="18" rx="9" fill="#A46849"/>
  <rect x="1060" y="394" width="160" height="16" rx="8" fill="#EAE4D8" opacity="0.35"/>
  <rect x="820" y="530" width="190" height="160" rx="24" fill="#FCFAF6" stroke="#D8D2C6"/>
  <rect x="960" y="510" width="300" height="190" rx="28" fill="#F1E0D5" stroke="#D8D2C6"/>
  <text x="785" y="774" fill="#556B63" font-family="Arial, sans-serif" font-size="16">Hero produit, double accent, contrastes variés, hiérarchie plus incarnée</text>
</svg>
